<?xml version="1.0" standalone="no"?>
<!DOCTYPE svg PUBLIC "-//W3C//DTD SVG 20010904//EN"
 "http://www.w3.org/TR/2001/REC-SVG-20010904/DTD/svg10.dtd">
<svg version="1.0" xmlns="http://www.w3.org/2000/svg"
 width="700.000000pt" height="700.000000pt" viewBox="0 0 700.000000 700.000000"
 preserveAspectRatio="xMidYMid meet">
<metadata>
Created by potrace 1.11, written by Peter Selinger 2001-2013
</metadata>
<g transform="translate(0.000000,700.000000) scale(0.100000,-0.100000)"
fill="#000000" stroke="none">
<path d="M541 5160 c-4 -3 -7 -810 -6 -1795 l0 -1790 434 -3 c255 -1 437 2
440 7 3 5 6 556 5 1225 0 669 3 1213 7 1209 8 -9 29 -47 106 -193 28 -52 103
-193 167 -313 64 -120 116 -219 116 -221 0 -3 17 -35 38 -73 22 -37 66 -120
99 -183 33 -63 79 -149 100 -190 123 -230 312 -588 356 -670 27 -52 64 -122
82 -155 34 -64 136 -256 196 -370 l37 -70 519 -3 518 -2 0 1795 c0 1207 -3
1795 -10 1796 -5 1 -201 2 -433 3 -368 1 -425 -1 -431 -14 -3 -8 -6 -561 -5
-1228 0 -667 -2 -1209 -6 -1205 -4 4 -35 62 -70 128 -35 66 -93 176 -130 245
-37 69 -93 175 -125 235 -66 126 -124 235 -185 349 -23 44 -63 118 -87 165
-25 48 -62 118 -83 156 -20 39 -63 120 -95 180 -32 61 -70 133 -85 160 -36 67
-87 161 -256 483 -154 292 -176 332 -182 342 -4 6 -1022 6 -1031 0z"/>
<path d="M3988 5162 c-14 -3 -16 -179 -16 -1798 l0 -1794 119 -1 c66 0 243 0
394 0 151 0 284 0 295 0 19 1 20 8 20 188 0 180 1 186 17 163 21 -30 94 -110
146 -159 133 -124 287 -202 482 -242 69 -14 305 -18 382 -6 323 50 605 275
768 611 71 146 107 268 140 476 19 115 13 455 -10 580 -3 14 -9 50 -15 81 -42
231 -177 489 -346 661 -166 169 -340 256 -579 288 -61 8 -259 5 -305 -5 -14
-3 -38 -8 -55 -10 -202 -35 -405 -160 -566 -347 l-59 -69 0 693 0 693 -398 0
c-219 0 -405 -1 -414 -3z m1529 -1570 c86 -27 143 -62 197 -124 69 -76 118
-169 143 -273 60 -249 47 -572 -31 -764 -91 -224 -251 -331 -487 -326 -262 5
-425 143 -503 426 -23 83 -31 166 -31 334 0 151 7 226 26 300 6 22 12 47 14
56 15 75 96 212 165 276 116 107 335 149 507 95z"/>
</g>
</svg>
